<svg viewBox="0 0 1240 1620" xmlns="http://www.w3.org/2000/svg" font-family="Segoe UI, Arial, sans-serif">
  <defs>
    <linearGradient id="areaFill" x1="0" y1="0" x2="0" y2="1">
      <stop offset="0%" stop-color="#1E293B" stop-opacity="0.30"/>
      <stop offset="100%" stop-color="#1E293B" stop-opacity="0"/>
    </linearGradient>
  </defs>

  <rect x="0" y="0" width="1240" height="1620" fill="#94A3B8"/>

  <!-- BIG title -->
  <text x="40" y="42" font-size="32" font-weight="800" fill="#020617">EPFO Payroll Analytics — Report Wireframe</text>
  <text x="40" y="66" font-size="14" fill="#64748B">Two pages — Phase 4 blueprint</text>

  <!-- ============================================================ PAGE 1 — Action Center (as built) ============================================================ -->
  <text x="40" y="100" font-size="16" font-weight="700" fill="#1E293B">Page 1 — Action Center</text>
  <g transform="translate(40,112)">
    <rect x="0" y="0" width="1160" height="190" rx="8" fill="#94A3B8" stroke="#64748B" stroke-dasharray="4,3"/>

    <!-- logo mark, top-right -->
    <g transform="translate(950,14)">
      <rect x="0" y="4" width="26" height="26" rx="6" fill="#1E293B"/>
      <text x="13" y="22" font-size="12" font-weight="800" fill="#ffffff" text-anchor="middle">LT</text>
      <text x="34" y="16" font-size="9" font-weight="700" fill="#1E293B">EPFO Payroll Analytics</text>
      <text x="34" y="27" font-size="7.5" fill="#6B7280">&#169; 2026 Lakshay Tyagi</text>
    </g>

    <text x="24" y="52" font-size="26" font-weight="800" fill="#1E293B">EPFO Payroll Analytics</text>
    <line x1="24" y1="70" x2="1136" y2="70" stroke="#94A3B8"/>

    <rect x="24" y="90" width="230" height="42" rx="10" fill="#1E293B"/>
    <text x="139" y="116" font-size="11" font-weight="700" fill="#ffffff" text-anchor="middle">1. Overall Summary</text>

    <text x="24" y="155" font-size="8.5" fill="#6b7280" font-style="italic">More buttons appear here as Age-Band Detail, Gender-Wise, State-Wise Map,</text>
    <text x="24" y="167" font-size="8.5" fill="#6b7280" font-style="italic">and Industry-Wise pages get built.</text>
  </g>

  <!-- ============================================================ PAGE 2 — Overall Summary (the existing dashboard plan) ============================================================ -->
  <text x="40" y="332" font-size="16" font-weight="700" fill="#1E293B">Page 2 — Overall Summary</text>
  <g transform="translate(40,344)">
    <!-- Title + logo, matching the real build -->
    <text x="20" y="55" font-size="32" font-weight="800" fill="#1E293B">Overall Summary</text>
    <g transform="translate(880,8)">
      <rect x="0" y="4" width="26" height="26" rx="6" fill="#1E293B"/>
      <text x="13" y="22" font-size="12" font-weight="800" fill="#ffffff" text-anchor="middle">LT</text>
      <text x="34" y="16" font-size="9" font-weight="700" fill="#1E293B">EPFO Payroll Analytics</text>
      <text x="34" y="27" font-size="7.5" fill="#6B7280">&#169; 2026 Lakshay Tyagi</text>
    </g>

    <line x1="0" y1="75" x2="1160" y2="75" stroke="#1E293B"/>

    <!-- Filter card: dark navy panel (its own fill is ThemeDataColor #2, which renders -->
    <!-- dark navy in this theme, not violet). Pills sit near the TOP of the panel, not -->
    <!-- centered; there's a real gap of empty dark space below them before the panel ends. -->
    <rect x="0" y="85" width="1160" height="105" rx="8" fill="#1E293B"/>
    <g font-size="8.5">
      <rect x="15" y="99" width="128" height="35" rx="4" fill="#F8FAFC" stroke="#94A3B8"/><text x="79" y="120" fill="#1E293B" text-anchor="middle">18-21</text>
      <rect x="153" y="99" width="128" height="35" rx="4" fill="#F8FAFC" stroke="#94A3B8"/><text x="217" y="120" fill="#1E293B" text-anchor="middle">22-25</text>
      <rect x="291" y="99" width="128" height="35" rx="4" fill="#F8FAFC" stroke="#94A3B8"/><text x="355" y="120" fill="#1E293B" text-anchor="middle">26-28</text>
      <rect x="429" y="99" width="128" height="35" rx="4" fill="#F8FAFC" stroke="#94A3B8"/><text x="493" y="120" fill="#1E293B" text-anchor="middle">29-35</text>
      <rect x="567" y="99" width="128" height="35" rx="4" fill="#F8FAFC" stroke="#94A3B8"/><text x="631" y="120" fill="#1E293B" text-anchor="middle">Less than 18</text>
      <rect x="705" y="99" width="128" height="35" rx="4" fill="#F8FAFC" stroke="#94A3B8"/><text x="769" y="120" fill="#1E293B" text-anchor="middle">More than 35</text>
      <rect x="855" y="99" width="140" height="35" rx="4" fill="#F8FAFC" stroke="#94A3B8"/><text x="925" y="120" fill="#1E293B" text-anchor="middle">01-06-2019 📅</text>
      <rect x="1005" y="99" width="140" height="35" rx="4" fill="#F8FAFC" stroke="#94A3B8"/><text x="1075" y="120" fill="#1E293B" text-anchor="middle">01-07-2025 📅</text>
    </g>
    <text x="15" y="165" font-size="6.5" font-style="italic" fill="#94A3B8">Note: pills are sorting alphabetically (1,2,2,2,L,M), not by AgeBandSort — this slicer type may not respect Sort by Column.</text>

    <!-- KPI row -->
    <rect x="12" y="200" width="275" height="100" rx="6" fill="#F8FAFC" stroke="#e5e9f0"/>
    <rect x="12" y="200" width="4" height="100" fill="#1E293B"/>
    <text x="24" y="222" font-size="9.5" fill="#6b7280">Net Payroll PM</text>
    <text x="24" y="265" font-size="20" font-weight="700" fill="#1E293B">74M</text>
    <rect x="299" y="200" width="275" height="100" rx="6" fill="#F8FAFC" stroke="#e5e9f0"/>
    <rect x="299" y="200" width="4" height="100" fill="#1E293B"/>
    <text x="311" y="222" font-size="9.5" fill="#6b7280">MoM % Change</text>
    <text x="311" y="265" font-size="20" font-weight="700" fill="#1E293B">2.41%</text>
    <rect x="586" y="200" width="275" height="100" rx="6" fill="#F8FAFC" stroke="#e5e9f0"/>
    <rect x="586" y="200" width="4" height="100" fill="#1E293B"/>
    <text x="598" y="222" font-size="9.5" fill="#6b7280">YoY % Change</text>
    <text x="598" y="265" font-size="20" font-weight="700" fill="#1E293B">23.71%</text>
    <rect x="873" y="200" width="275" height="100" rx="6" fill="#F8FAFC" stroke="#e5e9f0"/>
    <rect x="873" y="200" width="4" height="100" fill="#1E293B"/>
    <text x="885" y="222" font-size="9.5" fill="#6b7280">AgeBand Volatility</text>
    <text x="885" y="265" font-size="20" font-weight="700" fill="#1E293B">6.39M</text>

    <!-- Sections below, shifted down to make room for the taller panel + KPI row -->
    <g transform="translate(0,158)">

    <!-- Section: Trend Overview -->
    <text x="12" y="150" font-size="13.5" font-weight="700" fill="#1E293B">Trend Overview</text>

    <rect x="12" y="160" width="700" height="184" rx="6" fill="#F8FAFC" stroke="#e5e9f0"/>
    <text x="24" y="176" font-size="9.5" fill="#6b7280">Net Payroll (solid) + Rolling 3M Avg (dashed)</text>
    <text x="24" y="187" font-size="6.5" font-style="italic" fill="#a7b0bd">[Total Net Payroll] · [Rolling 3M Avg Net Payroll] by Calendar[Date]</text>
    <line x1="34" y1="200" x2="34" y2="320" stroke="#d7deea"/>
    <line x1="34" y1="320" x2="676" y2="320" stroke="#d7deea"/>
    <polygon points="34,320 100,290 166,302 232,250 298,228 364,262 430,208 496,232 562,196 628,218 676,186 676,320"
      fill="url(#areaFill)"/>
    <polyline points="34,320 100,290 166,302 232,250 298,228 364,262 430,208 496,232 562,196 628,218 676,186"
      fill="none" stroke="#1E293B" stroke-width="2.4" stroke-linecap="round" stroke-linejoin="round"/>
    <polyline points="34,312 100,300 166,294 232,276 298,262 364,258 430,240 496,232 562,216 628,208 676,196"
      fill="none" stroke="#4C1D95" stroke-width="1.6" stroke-dasharray="5,3" stroke-linecap="round"/>

    <rect x="728" y="160" width="420" height="184" rx="6" fill="#F8FAFC" stroke="#e5e9f0"/>
    <text x="740" y="176" font-size="9.5" fill="#6b7280">Net Payroll Waterfall by Year</text>
    <text x="740" y="187" font-size="6.5" font-style="italic" fill="#a7b0bd">[Total Net Payroll] by Calendar[Year]</text>
    <line x1="750" y1="320" x2="1136" y2="320" stroke="#d7deea"/>
    <g>
      <rect x="750" y="300" width="34" height="20" fill="#047857"/><rect x="792" y="311" width="34" height="9" fill="#B91C1C"/>
      <rect x="834" y="288" width="34" height="18" fill="#047857"/><rect x="876" y="292" width="34" height="8" fill="#047857"/>
      <rect x="918" y="306" width="34" height="12" fill="#B91C1C"/><rect x="960" y="278" width="34" height="20" fill="#047857"/>
      <rect x="1002" y="266" width="34" height="10" fill="#047857"/><rect x="1044" y="284" width="34" height="14" fill="#B91C1C"/>
      <rect x="1086" y="254" width="34" height="14" fill="#047857"/>
    </g>
    <text x="740" y="338" font-size="6.5" font-style="italic" fill="#a7b0bd">Note: years currently render out of order (largest total first) — axis looks sorted by value, not by Year.</text>

    <!-- Section: Age-Band Breakdown (shifted up 66 now that Monthly Detail is dropped) -->
    <g transform="translate(0,-66)">
    <text x="12" y="432" font-size="13.5" font-weight="700" fill="#1E293B">Age-Band Breakdown</text>

    <rect x="12" y="442" width="554" height="528" rx="6" fill="#F8FAFC" stroke="#e5e9f0"/>
    <text x="24" y="460" font-size="9.5" fill="#6b7280">Net Payroll by Month (treemap)</text>
    <text x="24" y="472" font-size="6.5" font-style="italic" fill="#a7b0bd">[Total Net Payroll] by Calendar[MonthName]</text>
    <g fill="#1E293B" stroke="#F8FAFC" stroke-width="2">
      <rect x="24" y="490" width="220" height="180"/>
      <rect x="248" y="490" width="150" height="120"/>
      <rect x="402" y="490" width="152" height="80"/>
      <rect x="248" y="614" width="90" height="56"/>
      <rect x="342" y="614" width="90" height="56"/>
      <rect x="402" y="574" width="152" height="96"/>
      <rect x="24" y="674" width="140" height="86"/>
      <rect x="168" y="674" width="130" height="86"/>
      <rect x="302" y="674" width="130" height="86"/>
      <rect x="436" y="674" width="118" height="86"/>
    </g>
    <text x="289" y="948" font-size="6.5" font-style="italic" fill="#a7b0bd" text-anchor="middle">Note: this groups by month, not by age band — double check that's intentional for this section</text>

    <rect x="582" y="442" width="566" height="257" rx="6" fill="#F8FAFC" stroke="#e5e9f0"/>
    <text x="594" y="460" font-size="9.5" fill="#6b7280">Decomposition Tree</text>
    <text x="594" y="472" font-size="6.5" font-style="italic" fill="#a7b0bd">[Total Net Payroll], explain by AgeBand</text>
    <g stroke="#CBD5E1" stroke-width="1.6" fill="none">
      <line x1="865" y1="500" x2="776" y2="570"/><line x1="865" y1="500" x2="865" y2="570"/><line x1="865" y1="500" x2="954" y2="570"/>
    </g>
    <circle cx="865" cy="500" r="10" fill="#1E293B"/><circle cx="776" cy="570" r="8" fill="#0E7490"/><circle cx="865" cy="570" r="8" fill="#0E7490"/><circle cx="954" cy="570" r="8" fill="#0E7490"/>
    <text x="865" y="640" font-size="9" fill="#9aa4b2" text-anchor="middle">Total → AgeBand → Date</text>

    <rect x="582" y="713" width="566" height="257" rx="6" fill="#F8FAFC" stroke="#e5e9f0"/>
    <text x="594" y="731" font-size="9.5" fill="#6b7280">Share of Total (donut)</text>
    <text x="594" y="743" font-size="6.5" font-style="italic" fill="#a7b0bd">[Total Net Payroll] % of grand total, by AgeBand</text>
    <g transform="translate(700,845)">
      <circle r="60" fill="none" stroke="#e2e6ed" stroke-width="22"/>
      <circle r="60" fill="none" stroke="#1E293B" stroke-width="22" stroke-dasharray="63 314"/>
      <circle r="60" fill="none" stroke="#0E7490" stroke-width="22" stroke-dasharray="63 314" stroke-dashoffset="-63"/>
      <circle r="60" fill="none" stroke="#4C1D95" stroke-width="22" stroke-dasharray="63 314" stroke-dashoffset="-126"/>
      <circle r="60" fill="none" stroke="#9D174D" stroke-width="22" stroke-dasharray="63 314" stroke-dashoffset="-189"/>
      <circle r="60" fill="none" stroke="#047857" stroke-width="22" stroke-dasharray="63 314" stroke-dashoffset="-252"/>
    </g>
    <g font-size="8.5" fill="#6b7280">
      <rect x="900" y="820" width="8" height="8" fill="#1E293B"/><text x="912" y="827">Less than 18</text>
      <rect x="900" y="836" width="8" height="8" fill="#0E7490"/><text x="912" y="843">18-21</text>
      <rect x="900" y="852" width="8" height="8" fill="#4C1D95"/><text x="912" y="859">22-25</text>
      <rect x="900" y="868" width="8" height="8" fill="#9D174D"/><text x="912" y="875">26-28</text>
      <rect x="900" y="884" width="8" height="8" fill="#047857"/><text x="912" y="891">29-35 / More than 35</text>
    </g>
    </g>

    <!-- COVID-19 Impact follows Age-Band Breakdown at the same gap it always had (Age-Band shifted up 66, so this shift shrinks from 244 to 178) -->
    <g transform="translate(0,178)">

    <!-- Section: COVID-19 Impact -->
    <text x="12" y="748" font-size="13.5" font-weight="700" fill="#1E293B">COVID-19 Impact</text>

    <rect x="12" y="758" width="600" height="140" rx="6" fill="#F8FAFC" stroke="#e5e9f0"/>
    <text x="24" y="774" font-size="9.5" fill="#6b7280">Pre-COVID vs Post-COVID Impact</text>
    <text x="24" y="785" font-size="6.5" font-style="italic" fill="#a7b0bd">[Pre-COVID Avg Monthly Net Payroll] · [COVID Era Avg Monthly Net Payroll] · [Post-COVID Avg Monthly Net Payroll]</text>
    <line x1="34" y1="884" x2="600" y2="884" stroke="#d7deea"/>
    <rect x="120" y="824" width="70" height="60" fill="#1E293B"/><text x="155" y="898" font-size="8.5" fill="#6b7280" text-anchor="middle">Pre-COVID</text>
    <rect x="270" y="854" width="70" height="30" fill="#991B1B"/><text x="305" y="898" font-size="8.5" fill="#6b7280" text-anchor="middle">COVID Era</text>
    <rect x="420" y="804" width="70" height="80" fill="#047857"/><text x="455" y="898" font-size="8.5" fill="#6b7280" text-anchor="middle">Post-COVID</text>

    <rect x="628" y="758" width="530" height="140" rx="6" fill="#F8FAFC" stroke="#e5e9f0"/>
    <text x="640" y="774" font-size="9.5" fill="#6b7280">MoM % Change and YoY % Change</text>
    <text x="640" y="785" font-size="6.5" font-style="italic" fill="#a7b0bd">[MoM % Change] · [YoY % Change] by Calendar[Date]</text>
    <line x1="650" y1="884" x2="1146" y2="884" stroke="#d7deea"/>
    <polyline points="650,860 700,850 750,865 800,840 850,855 900,820 950,845 1000,810 1050,830 1100,800 1146,815"
      fill="none" stroke="#1E293B" stroke-width="2" stroke-linecap="round" stroke-linejoin="round"/>
    <polyline points="650,870 700,865 750,875 800,858 850,868 900,845 950,860 1000,835 1050,850 1100,825 1146,838"
      fill="none" stroke="#4C1D95" stroke-width="1.6" stroke-dasharray="5,3" stroke-linecap="round"/>
    <text x="640" y="912" font-size="6.5" font-style="italic" fill="#a7b0bd">Built differently than planned: full history, not zoomed to 2020 — no highlight band. Recovery timeline still to add.</text>

    </g>
    </g>
  </g>
</svg>
